<svg width="20" height="20" viewBox="0 0 20 20" fill="none" xmlns="http://www.w3.org/2000/svg">
<path d="M17.9167 5C17.9167 5.20411 17.8417 5.40111 17.7061 5.55364C17.5705 5.70617 17.3836 5.80362 17.1809 5.8275L17.0834 5.83333H16.3792L15.3534 16.2667C15.2975 16.8328 15.0331 17.3579 14.6115 17.7399C14.19 18.1219 13.6414 18.3334 13.0725 18.3333H6.92754C6.35866 18.3334 5.8101 18.1219 5.38854 17.7399C4.96698 17.3579 4.70256 16.8328 4.64671 16.2667L3.62087 5.83333H2.91671C2.69569 5.83333 2.48373 5.74554 2.32745 5.58926C2.17117 5.43298 2.08337 5.22101 2.08337 5C2.08337 4.77899 2.17117 4.56703 2.32745 4.41074C2.48373 4.25446 2.69569 4.16667 2.91671 4.16667H7.08337C7.08337 3.78364 7.15881 3.40437 7.30539 3.05051C7.45197 2.69664 7.66681 2.37511 7.93764 2.10427C8.20848 1.83343 8.53001 1.61859 8.88388 1.47202C9.23775 1.32544 9.61702 1.25 10 1.25C10.3831 1.25 10.7623 1.32544 11.1162 1.47202C11.4701 1.61859 11.7916 1.83343 12.0624 2.10427C12.3333 2.37511 12.5481 2.69664 12.6947 3.05051C12.8413 3.40437 12.9167 3.78364 12.9167 4.16667H17.0834C17.3044 4.16667 17.5163 4.25446 17.6726 4.41074C17.8289 4.56703 17.9167 4.77899 17.9167 5ZM11.875 7.70833C11.724 7.70834 11.5781 7.76304 11.4643 7.86231C11.3504 7.96158 11.2764 8.09871 11.2559 8.24833L11.25 8.33333V14.1667L11.2559 14.2517C11.2765 14.4013 11.3505 14.5383 11.4643 14.6376C11.5781 14.7368 11.724 14.7915 11.875 14.7915C12.026 14.7915 12.1719 14.7368 12.2858 14.6376C12.3996 14.5383 12.4736 14.4013 12.4942 14.2517L12.5 14.1667V8.33333L12.4942 8.24833C12.4737 8.09871 12.3996 7.96158 12.2858 7.86231C12.172 7.76304 12.0261 7.70834 11.875 7.70833ZM8.12504 7.70833C7.97401 7.70834 7.82809 7.76304 7.71426 7.86231C7.60044 7.96158 7.52641 8.09871 7.50587 8.24833L7.50004 8.33333V14.1667L7.50587 14.2517C7.52646 14.4013 7.6005 14.5383 7.71432 14.6376C7.82814 14.7368 7.97404 14.7915 8.12504 14.7915C8.27604 14.7915 8.42194 14.7368 8.53576 14.6376C8.64958 14.5383 8.72362 14.4013 8.74421 14.2517L8.75004 14.1667V8.33333L8.74421 8.24833C8.72367 8.09871 8.64964 7.96158 8.53581 7.86231C8.42199 7.76304 8.27607 7.70834 8.12504 7.70833ZM10 2.91667C9.66852 2.91667 9.35058 3.04836 9.11616 3.28278C8.88174 3.5172 8.75004 3.83515 8.75004 4.16667H11.25C11.25 3.83515 11.1183 3.5172 10.8839 3.28278C10.6495 3.04836 10.3316 2.91667 10 2.91667Z" fill="#EE2B00"/>
</svg>
